<svg width="16" height="16" viewBox="0 0 16 16" fill="none" xmlns="http://www.w3.org/2000/svg">
<path d="M11 8.00057C10.9999 8.26576 10.8946 8.52008 10.707 8.70757L6.707 12.7076C6.5184 12.8897 6.2658 12.9905 6.0036 12.9882C5.74141 12.986 5.49059 12.8808 5.30519 12.6954C5.11978 12.51 5.01461 12.2592 5.01233 11.997C5.01005 11.7348 5.11085 11.4822 5.29301 11.2936L8.586 8.00057L5.293 4.70757C5.19749 4.61532 5.12131 4.50498 5.0689 4.38297C5.01649 4.26097 4.98891 4.12975 4.98775 3.99697C4.9866 3.86419 5.0119 3.73251 5.06218 3.60962C5.11246 3.48672 5.18672 3.37507 5.28061 3.28117C5.3745 3.18728 5.48615 3.11303 5.60905 3.06275C5.73195 3.01247 5.86363 2.98716 5.99641 2.98832C6.12919 2.98947 6.2604 3.01706 6.38241 3.06947C6.50441 3.12188 6.61476 3.19806 6.707 3.29357L10.707 7.29357C10.8946 7.48106 10.9999 7.73537 11 8.00057Z" fill="#212121"/>
</svg>
