<svg width="18" height="18" viewBox="0 0 18 18" fill="none" xmlns="http://www.w3.org/2000/svg">
<g clip-path="url(#clip0_3461_8640)">
<path d="M14.7806 15.5311C14.8505 15.4615 14.9059 15.3787 14.9437 15.2876C14.9815 15.1965 15.001 15.0988 15.001 15.0001C15.001 14.9015 14.9815 14.8038 14.9437 14.7127C14.9059 14.6216 14.8505 14.5388 14.7806 14.4691L9.31013 9.00012L14.7806 3.53112C14.8505 3.46145 14.9059 3.37869 14.9437 3.28757C14.9815 3.19645 15.001 3.09877 15.001 3.00012C15.001 2.90147 14.9815 2.80379 14.9437 2.71267C14.9059 2.62155 14.8505 2.53879 14.7806 2.46912L12.5306 0.21912C12.461 0.149275 12.3782 0.0938607 12.2871 0.0560511C12.196 0.0182414 12.0983 -0.00122083 11.9996 -0.00122083C11.901 -0.00122084 11.8033 0.0182414 11.7122 0.056051C11.6211 0.0938607 11.5383 0.149275 11.4686 0.21912L3.21864 8.46912C3.14879 8.53879 3.09338 8.62155 3.05557 8.71267C3.01776 8.80379 2.9983 8.90147 2.9983 9.00012C2.9983 9.09877 3.01776 9.19645 3.05557 9.28757C3.09338 9.37869 3.14879 9.46145 3.21864 9.53112L11.4686 17.7811C11.5383 17.851 11.6211 17.9064 11.7122 17.9442C11.8033 17.982 11.901 18.0015 11.9996 18.0015C12.0983 18.0015 12.196 17.982 12.2871 17.9442C12.3782 17.9064 12.461 17.851 12.5306 17.7811L14.7806 15.5311Z" fill="black"/>
</g>
<defs>
<clipPath id="clip0_3461_8640">
<rect width="18" height="18" fill="white" transform="translate(18) rotate(90)"/>
</clipPath>
</defs>
</svg>
