<svg width="16" height="16" viewBox="0 0 16 16" fill="none" xmlns="http://www.w3.org/2000/svg">
<g filter="url(#filter0_d_3859_57539)">
<circle cx="8" cy="7" r="6" fill="white"/>
</g>
<g clip-path="url(#clip0_3859_57539)">
<path d="M8.417 4.56396C8.38106 4.5317 8.33655 4.51054 8.28884 4.50304C8.24113 4.49553 8.19227 4.50201 8.14816 4.52168C8.10405 4.54136 8.06659 4.57338 8.0403 4.61389C8.014 4.65441 8.00001 4.70166 8 4.74996V6.49996H5.5C5.36739 6.49996 5.24021 6.55264 5.14645 6.64641C5.05268 6.74017 5 6.86735 5 6.99996C5 7.13257 5.05268 7.25974 5.14645 7.35351C5.24021 7.44728 5.36739 7.49996 5.5 7.49996H8V9.24996C8.00001 9.29825 8.014 9.34551 8.0403 9.38602C8.06659 9.42654 8.10405 9.45856 8.14816 9.47824C8.19227 9.49791 8.24113 9.50439 8.28884 9.49688C8.33655 9.48938 8.38106 9.46822 8.417 9.43596L10.917 7.18596C10.9431 7.16251 10.964 7.13384 10.9783 7.10179C10.9926 7.06974 11 7.03505 11 6.99996C11 6.96487 10.9926 6.93018 10.9783 6.89813C10.964 6.86608 10.9431 6.8374 10.917 6.81396L8.417 4.56396Z" fill="#3D4667"/>
</g>
<defs>
<filter id="filter0_d_3859_57539" x="0" y="0" width="16" height="16" filterUnits="userSpaceOnUse" color-interpolation-filters="sRGB">
<feFlood flood-opacity="0" result="BackgroundImageFix"/>
<feColorMatrix in="SourceAlpha" type="matrix" values="0 0 0 0 0 0 0 0 0 0 0 0 0 0 0 0 0 0 127 0" result="hardAlpha"/>
<feOffset dy="1"/>
<feGaussianBlur stdDeviation="1"/>
<feComposite in2="hardAlpha" operator="out"/>
<feColorMatrix type="matrix" values="0 0 0 0 0 0 0 0 0 0 0 0 0 0 0 0 0 0 0.25 0"/>
<feBlend mode="normal" in2="BackgroundImageFix" result="effect1_dropShadow_3859_57539"/>
<feBlend mode="normal" in="SourceGraphic" in2="effect1_dropShadow_3859_57539" result="shape"/>
</filter>
<clipPath id="clip0_3859_57539">
<rect width="6" height="6" fill="white" transform="translate(5 4)"/>
</clipPath>
</defs>
</svg>
