<svg width="20" height="20" viewBox="0 0 20 20" fill="none" xmlns="http://www.w3.org/2000/svg">
<g filter="url(#filter0_d_3859_57539)">
<circle cx="10" cy="9" r="8" fill="white"/>
</g>
<g clip-path="url(#clip0_3859_57539)">
<path d="M9.444 12.2477C9.49192 12.2907 9.55127 12.319 9.61488 12.329C9.6785 12.339 9.74364 12.3303 9.80245 12.3041C9.86126 12.2779 9.91121 12.2352 9.94627 12.1811C9.98133 12.1271 9.99999 12.0641 10 11.9997V9.6664H13.3333C13.5101 9.6664 13.6797 9.59616 13.8047 9.47113C13.9298 9.34611 14 9.17654 14 8.99973C14 8.82292 13.9298 8.65335 13.8047 8.52832C13.6797 8.4033 13.5101 8.33306 13.3333 8.33306H10V5.99973C9.99999 5.93534 9.98133 5.87232 9.94627 5.81831C9.91121 5.76429 9.86126 5.72159 9.80245 5.69536C9.74364 5.66913 9.6785 5.66049 9.61488 5.6705C9.55127 5.6805 9.49192 5.70871 9.444 5.75173L6.11067 8.75173C6.07586 8.78299 6.04802 8.82123 6.02896 8.86395C6.00991 8.90668 6.00006 8.95294 6.00006 8.99973C6.00006 9.04651 6.00991 9.09277 6.02896 9.1355C6.04802 9.17823 6.07586 9.21647 6.11067 9.24773L9.444 12.2477Z" fill="#3D4667"/>
</g>
<defs>
<filter id="filter0_d_3859_57539" x="0" y="0" width="20" height="20" filterUnits="userSpaceOnUse" color-interpolation-filters="sRGB">
<feFlood flood-opacity="0" result="BackgroundImageFix"/>
<feColorMatrix in="SourceAlpha" type="matrix" values="0 0 0 0 0 0 0 0 0 0 0 0 0 0 0 0 0 0 127 0" result="hardAlpha"/>
<feOffset dy="1"/>
<feGaussianBlur stdDeviation="1"/>
<feComposite in2="hardAlpha" operator="out"/>
<feColorMatrix type="matrix" values="0 0 0 0 0 0 0 0 0 0 0 0 0 0 0 0 0 0 0.25 0"/>
<feBlend mode="normal" in2="BackgroundImageFix" result="effect1_dropShadow_3859_57539"/>
<feBlend mode="normal" in="SourceGraphic" in2="effect1_dropShadow_3859_57539" result="shape"/>
</filter>
<clipPath id="clip0_3859_57539">
<rect width="8" height="8" fill="white" transform="matrix(-1 0 0 -1 14 13)"/>
</clipPath>
</defs>
</svg>
