<svg width="12" height="12" viewBox="0 0 12 12" fill="none" xmlns="http://www.w3.org/2000/svg">
<path d="M10.7071 1.293C10.5196 1.10553 10.2652 1.00021 10.0001 1.00021C9.73492 1.00021 9.48061 1.10553 9.29308 1.293L6.00008 4.586L2.70708 1.293C2.51848 1.11084 2.26588 1.01005 2.00368 1.01233C1.74148 1.0146 1.49067 1.11977 1.30526 1.30518C1.11985 1.49059 1.01469 1.7414 1.01241 2.0036C1.01013 2.2658 1.11092 2.5184 1.29308 2.707L4.58608 6L1.29308 9.293C1.19757 9.38525 1.12139 9.49559 1.06898 9.6176C1.01657 9.7396 0.988985 9.87082 0.987831 10.0036C0.986677 10.1364 1.01198 10.2681 1.06226 10.391C1.11254 10.5139 1.18679 10.6255 1.28069 10.7194C1.37458 10.8133 1.48623 10.8875 1.60913 10.9378C1.73202 10.9881 1.8637 11.0134 1.99648 11.0123C2.12926 11.0111 2.26048 10.9835 2.38249 10.9311C2.50449 10.8787 2.61483 10.8025 2.70708 10.707L6.00008 7.414L9.29308 10.707C9.48168 10.8892 9.73429 10.99 9.99648 10.9877C10.2587 10.9854 10.5095 10.8802 10.6949 10.6948C10.8803 10.5094 10.9855 10.2586 10.9878 9.9964C10.99 9.7342 10.8892 9.4816 10.7071 9.293L7.41408 6L10.7071 2.707C10.8946 2.51947 10.9999 2.26516 10.9999 2C10.9999 1.73484 10.8946 1.48053 10.7071 1.293Z" fill="#212121"/>
</svg>
