<svg width="8" height="8" viewBox="0 0 8 8" fill="none" xmlns="http://www.w3.org/2000/svg">
<g id="Icon/emove" clip-path="url(#clip0_3276_47591)">
<g id="Group">
<path id="Vector" d="M7.13822 0.861939C7.0132 0.736958 6.84366 0.666748 6.66688 0.666748C6.49011 0.666748 6.32057 0.736958 6.19555 0.861939L4.00022 3.05727L1.80488 0.861939C1.67915 0.7405 1.51075 0.673304 1.33595 0.674823C1.16115 0.676342 0.993943 0.746455 0.870338 0.87006C0.746732 0.993665 0.67662 1.16087 0.675101 1.33567C0.673582 1.51047 0.740778 1.67887 0.862217 1.80461L3.05755 3.99994L0.862217 6.19527C0.798543 6.25677 0.747755 6.33033 0.712816 6.41167C0.677877 6.49301 0.659486 6.58049 0.658717 6.66901C0.657947 6.75752 0.674815 6.84531 0.708336 6.92724C0.741856 7.00917 0.791358 7.08361 0.853954 7.1462C0.916549 7.2088 0.990983 7.2583 1.07291 7.29182C1.15485 7.32534 1.24263 7.34221 1.33115 7.34144C1.41967 7.34067 1.50715 7.32228 1.58849 7.28734C1.66982 7.2524 1.74339 7.20161 1.80488 7.13794L4.00022 4.94261L6.19555 7.13794C6.32129 7.25938 6.48969 7.32657 6.66448 7.32506C6.83928 7.32354 7.00649 7.25342 7.1301 7.12982C7.2537 7.00621 7.32381 6.839 7.32533 6.66421C7.32685 6.48941 7.25966 6.32101 7.13822 6.19527L4.94288 3.99994L7.13822 1.80461C7.2632 1.67959 7.33341 1.51005 7.33341 1.33327C7.33341 1.1565 7.2632 0.986957 7.13822 0.861939Z" fill="#D2D6E5"/>
</g>
</g>
<defs>
<clipPath id="clip0_3276_47591">
<rect width="8" height="8" fill="white"/>
</clipPath>
</defs>
</svg>
