<svg width="8" height="8" viewBox="0 0 8 8" fill="none" xmlns="http://www.w3.org/2000/svg">
<g clip-path="url(#clip0_1515_37872)">
<path d="M7.13797 0.861207C7.01295 0.736226 6.84342 0.666016 6.66664 0.666016C6.48986 0.666016 6.32032 0.736226 6.19531 0.861207L3.99997 3.05654L1.80464 0.861207C1.6789 0.739768 1.5105 0.672572 1.33571 0.674091C1.16091 0.67561 0.993699 0.745722 0.870094 0.869328C0.746488 0.992933 0.676376 1.16014 0.674857 1.33494C0.673338 1.50974 0.740534 1.67814 0.861973 1.80387L3.05731 3.99921L0.861973 6.19454C0.798299 6.25604 0.747511 6.3296 0.712572 6.41094C0.677632 6.49227 0.659242 6.57975 0.658472 6.66827C0.657703 6.75679 0.674571 6.84458 0.708092 6.92651C0.741612 7.00844 0.791114 7.08287 0.853709 7.14547C0.916305 7.20806 0.990739 7.25757 1.07267 7.29109C1.1546 7.32461 1.24239 7.34148 1.33091 7.34071C1.41943 7.33994 1.50691 7.32155 1.58824 7.28661C1.66958 7.25167 1.74314 7.20088 1.80464 7.13721L3.99997 4.94187L6.19531 7.13721C6.32104 7.25865 6.48944 7.32584 6.66424 7.32432C6.83904 7.3228 7.00625 7.25269 7.12985 7.12909C7.25346 7.00548 7.32357 6.83827 7.32509 6.66347C7.32661 6.48868 7.25941 6.32027 7.13797 6.19454L4.94264 3.99921L7.13797 1.80387C7.26295 1.67885 7.33316 1.50932 7.33316 1.33254C7.33316 1.15576 7.26295 0.986225 7.13797 0.861207Z" fill="#5E6E99"/>
</g>
<defs>
<clipPath id="clip0_1515_37872">
<rect width="8" height="8" fill="white"/>
</clipPath>
</defs>
</svg>
