<svg width="8" height="12" viewBox="0 0 8 12" fill="none" xmlns="http://www.w3.org/2000/svg">
<path d="M3.542 11.938V10.692C3.01933 10.6547 2.506 10.5427 2.002 10.356C1.498 10.1693 1.04067 9.91267 0.63 9.586L1.134 8.83C1.51667 9.11933 1.90867 9.348 2.31 9.516C2.72067 9.684 3.13133 9.79133 3.542 9.838V6.38L2.828 6.184C2.11867 5.96933 1.59133 5.68 1.246 5.316C0.91 4.94267 0.742 4.48067 0.742 3.93C0.742 3.22067 0.994 2.64667 1.498 2.208C2.01133 1.76933 2.69267 1.53133 3.542 1.494V0.262H4.214V1.522C4.68067 1.56867 5.13333 1.69 5.572 1.886C6.02 2.07267 6.43533 2.32 6.818 2.628L6.3 3.356C5.656 2.824 4.96067 2.502 4.214 2.39V5.624L4.928 5.834C5.684 6.058 6.22533 6.352 6.552 6.716C6.888 7.07067 7.056 7.53733 7.056 8.116C7.056 8.592 6.93467 9.02133 6.692 9.404C6.45867 9.77733 6.12733 10.076 5.698 10.3C5.278 10.524 4.78333 10.6547 4.214 10.692V11.938H3.542ZM3.542 5.428V2.348C2.97267 2.36667 2.52 2.516 2.184 2.796C1.85733 3.06667 1.694 3.42133 1.694 3.86C1.694 4.21467 1.806 4.50867 2.03 4.742C2.26333 4.966 2.63667 5.15733 3.15 5.316L3.542 5.428ZM4.214 9.838C4.78333 9.79133 5.236 9.62333 5.572 9.334C5.91733 9.03533 6.09 8.65733 6.09 8.2C6.09 7.836 5.978 7.54667 5.754 7.332C5.53933 7.108 5.152 6.898 4.592 6.702L4.214 6.576V9.838Z" fill="#4A577F"/>
</svg>
