<svg width="12" height="12" viewBox="0 0 12 12" fill="none" xmlns="http://www.w3.org/2000/svg">
<g clip-path="url(#clip0_812_2262)">
<path d="M11.5 11H0.5C0.367392 11 0.240215 11.0527 0.146447 11.1464C0.0526784 11.2402 0 11.3674 0 11.5C0 11.6326 0.0526784 11.7598 0.146447 11.8536C0.240215 11.9473 0.367392 12 0.5 12H11.5C11.6326 12 11.7598 11.9473 11.8536 11.8536C11.9473 11.7598 12 11.6326 12 11.5C12 11.3674 11.9473 11.2402 11.8536 11.1464C11.7598 11.0527 11.6326 11 11.5 11Z" fill="#363E59"/>
<path d="M1.49999 9.99992C1.55374 10.0002 1.60715 9.99137 1.65799 9.97392L4.65799 8.97392C4.73319 8.95024 4.80172 8.90912 4.85799 8.85392L10.858 2.85392C10.9046 2.80747 10.9415 2.7523 10.9667 2.69155C10.9919 2.63081 11.0049 2.56568 11.0049 2.49992C11.0049 2.43415 10.9919 2.36903 10.9667 2.30828C10.9415 2.24754 10.9046 2.19236 10.858 2.14592L8.85799 0.145917C8.81155 0.099354 8.75637 0.0624111 8.69563 0.0372047C8.63488 0.0119982 8.56976 -0.000976563 8.50399 -0.000976562C8.43823 -0.000976562 8.37311 0.0119982 8.31236 0.0372047C8.25162 0.0624111 8.19644 0.099354 8.14999 0.145917L2.14999 6.14592C2.09479 6.20219 2.05367 6.27072 2.02999 6.34592L1.02999 9.34592C1.00585 9.42049 0.99957 9.49969 1.01167 9.57713C1.02377 9.65458 1.05391 9.72809 1.09965 9.79174C1.14539 9.85539 1.20546 9.9074 1.275 9.94356C1.34455 9.97972 1.42162 9.99903 1.49999 9.99992Z" fill="#363E59"/>
</g>
<defs>
<clipPath id="clip0_812_2262">
<rect width="12" height="12" fill="white"/>
</clipPath>
</defs>
</svg>
