<svg width="14" height="14" viewBox="0 0 14 14" fill="none" xmlns="http://www.w3.org/2000/svg">
<g clip-path="url(#clip0_3859_56504)">
<path d="M13.4167 12.834H0.583333C0.428624 12.834 0.280251 12.8954 0.170854 13.0048C0.0614582 13.1142 0 13.2626 0 13.4173C0 13.572 0.0614582 13.7204 0.170854 13.8298C0.280251 13.9392 0.428624 14.0007 0.583333 14.0007H13.4167C13.5714 14.0007 13.7197 13.9392 13.8291 13.8298C13.9385 13.7204 14 13.572 14 13.4173C14 13.2626 13.9385 13.1142 13.8291 13.0048C13.7197 12.8954 13.5714 12.834 13.4167 12.834Z" fill="#3D4667"/>
<path d="M1.75053 11.6667C1.81324 11.667 1.87555 11.6568 1.93486 11.6364L5.43486 10.4697C5.52259 10.4421 5.60254 10.3941 5.6682 10.3297L12.6682 3.32973C12.7225 3.27555 12.7656 3.21117 12.795 3.14031C12.8244 3.06944 12.8396 2.99346 12.8396 2.91673C12.8396 2.84 12.8244 2.76403 12.795 2.69316C12.7656 2.62229 12.7225 2.55792 12.6682 2.50373L10.3349 0.1704C10.2807 0.116076 10.2163 0.0729758 10.1454 0.0435682C10.0746 0.0141607 9.99859 -0.000976563 9.92186 -0.000976562C9.84514 -0.000976562 9.76916 0.0141607 9.69829 0.0435682C9.62742 0.0729758 9.56305 0.116076 9.50886 0.1704L2.50887 7.1704C2.44446 7.23605 2.39648 7.31601 2.36887 7.40373L1.2022 10.9037C1.17403 10.9907 1.1667 11.0831 1.18082 11.1735C1.19494 11.2638 1.2301 11.3496 1.28346 11.4239C1.33683 11.4981 1.40691 11.5588 1.48804 11.601C1.56918 11.6432 1.65909 11.6657 1.75053 11.6667Z" fill="#3D4667"/>
</g>
<defs>
<clipPath id="clip0_3859_56504">
<rect width="14" height="14" fill="white"/>
</clipPath>
</defs>
</svg>
