<svg width="16" height="16" viewBox="0 0 16 16" fill="none" xmlns="http://www.w3.org/2000/svg">
<path fill-rule="evenodd" clip-rule="evenodd" d="M2.75213 1.33325H13.2479C14.0318 1.33325 14.6667 1.98729 14.6667 2.79475V3.81576C14.6667 4.20747 14.5136 4.58363 14.2418 4.85797L9.90511 9.2446C9.8303 9.32096 9.72871 9.36339 9.62369 9.36268L5.99263 9.35137C5.88212 9.35137 5.7771 9.30399 5.7016 9.22127L1.71636 4.83817C1.46994 4.56737 1.33334 4.20959 1.33334 3.83838V2.79546C1.33334 1.98799 1.96826 1.33325 2.75213 1.33325ZM6.18675 10.5493L9.42313 10.5592C9.62493 10.56 9.78829 10.7289 9.78829 10.9361V12.7568C9.78829 12.9647 9.67023 13.1528 9.48627 13.2397L6.54848 14.6192C6.47984 14.651 6.40708 14.6666 6.33432 14.6666C6.23754 14.6666 6.14076 14.6383 6.05633 14.5824C5.90875 14.4849 5.81952 14.3166 5.81952 14.1363V10.9262C5.81952 10.7176 5.98426 10.5486 6.18675 10.5493Z" fill="#3D4667"/>
</svg>
