<svg width="16" height="17" viewBox="0 0 16 17" fill="none" xmlns="http://www.w3.org/2000/svg">
<g id="Icon/Filter 2">
<g id="Filter 2">
<path id="Filter 2_2" fill-rule="evenodd" clip-rule="evenodd" d="M2.75229 2.15758H13.248C14.0319 2.15758 14.6668 2.77713 14.6668 3.54204V4.50922C14.6668 4.88028 14.5138 5.23661 14.2419 5.49649L9.90527 9.65187C9.83045 9.72421 9.72886 9.7644 9.62384 9.76373L5.99278 9.75301C5.88227 9.75301 5.77725 9.70814 5.70175 9.62977L1.71651 5.47773C1.47009 5.2212 1.3335 4.88229 1.3335 4.53065V3.54271C1.3335 2.7778 1.96842 2.15758 2.75229 2.15758ZM6.1869 10.8878L9.42328 10.8972C9.62508 10.8979 9.78844 11.058 9.78844 11.2542V12.9789C9.78844 13.1758 9.67038 13.354 9.48643 13.4364L6.54863 14.7432C6.47999 14.7733 6.40723 14.788 6.33448 14.788C6.23769 14.788 6.14091 14.7612 6.05648 14.7083C5.90891 14.6159 5.81967 14.4565 5.81967 14.2857V11.2448C5.81967 11.0472 5.98441 10.8872 6.1869 10.8878Z" fill="black"/>
</g>
</g>
</svg>
