<svg width="10" height="10" viewBox="0 0 10 10" fill="none" xmlns="http://www.w3.org/2000/svg">
<g clip-path="url(#clip0_1415_26651)">
<path d="M9.87454 7.82894L5.92642 0.550191C5.82905 0.369607 5.68055 0.221767 5.49954 0.125191C5.25362 -0.00641425 4.96568 -0.035596 4.69835 0.0439935C4.43102 0.123583 4.20593 0.305506 4.07204 0.550191L0.124542 7.82894C0.0382252 7.98912 -0.00493305 8.169 -0.000691519 8.3509C0.00355001 8.53281 0.0550454 8.71048 0.148734 8.86646C0.242423 9.02244 0.375082 9.15136 0.533676 9.24056C0.692269 9.32975 0.87134 9.37615 1.05329 9.37519H8.94579C9.12019 9.37519 9.29191 9.33226 9.44579 9.25019C9.56771 9.18548 9.6756 9.09727 9.76326 8.99066C9.85091 8.88404 9.9166 8.76113 9.95651 8.629C9.99643 8.49687 10.0098 8.35815 9.99583 8.22084C9.98187 8.08352 9.94023 7.95033 9.87454 7.82894ZM4.99954 8.12519C4.87593 8.12519 4.75509 8.08854 4.65231 8.01986C4.54953 7.95118 4.46942 7.85357 4.42212 7.73937C4.37481 7.62516 4.36244 7.4995 4.38655 7.37826C4.41067 7.25702 4.47019 7.14566 4.5576 7.05825C4.64501 6.97084 4.75637 6.91132 4.87761 6.8872C4.99885 6.86308 5.12452 6.87546 5.23872 6.92277C5.35292 6.97007 5.45053 7.05018 5.51921 7.15296C5.58789 7.25574 5.62454 7.37658 5.62454 7.50019C5.62454 7.66595 5.55869 7.82492 5.44148 7.94213C5.32427 8.05934 5.1653 8.12519 4.99954 8.12519ZM5.62454 5.93769C5.62454 6.02057 5.59162 6.10006 5.53301 6.15866C5.47441 6.21727 5.39492 6.25019 5.31204 6.25019H4.68704C4.60416 6.25019 4.52468 6.21727 4.46607 6.15866C4.40747 6.10006 4.37454 6.02057 4.37454 5.93769V3.43769C4.37454 3.35481 4.40747 3.27533 4.46607 3.21672C4.52468 3.15812 4.60416 3.12519 4.68704 3.12519H5.31204C5.39492 3.12519 5.47441 3.15812 5.53301 3.21672C5.59162 3.27533 5.62454 3.35481 5.62454 3.43769V5.93769Z" fill="#FF8800"/>
</g>
<defs>
<clipPath id="clip0_1415_26651">
<rect width="10" height="10" fill="white"/>
</clipPath>
</defs>
</svg>
