<svg width="9" height="12" viewBox="0 0 10 11" fill="none" xmlns="http://www.w3.org/2000/svg">
<path d="M2.45 5.67C1.84333 5.67 1.34867 5.43667 0.966 4.97C0.592667 4.50333 0.406 3.89667 0.406 3.15C0.406 2.40333 0.592667 1.79667 0.966 1.33C1.34867 0.863333 1.84333 0.629999 2.45 0.629999C3.05667 0.629999 3.54667 0.863333 3.92 1.33C4.30267 1.79667 4.494 2.40333 4.494 3.15C4.494 3.89667 4.30267 4.50333 3.92 4.97C3.54667 5.43667 3.05667 5.67 2.45 5.67ZM2.45 5.04C2.86067 5.04 3.18733 4.872 3.43 4.536C3.67267 4.19067 3.794 3.72867 3.794 3.15C3.794 2.57133 3.67267 2.114 3.43 1.778C3.18733 1.43267 2.86067 1.26 2.45 1.26C2.04867 1.26 1.722 1.43267 1.47 1.778C1.22733 2.114 1.106 2.57133 1.106 3.15C1.106 3.72867 1.22733 4.19067 1.47 4.536C1.722 4.872 2.04867 5.04 2.45 5.04ZM2.016 10.5L7.518 0.699999H8.33L2.814 10.5H2.016ZM7.91 10.57C7.30333 10.57 6.80867 10.3367 6.426 9.87C6.05267 9.40333 5.866 8.79667 5.866 8.05C5.866 7.30333 6.05267 6.69667 6.426 6.23C6.80867 5.76333 7.30333 5.53 7.91 5.53C8.51667 5.53 9.00667 5.76333 9.38 6.23C9.76267 6.69667 9.954 7.30333 9.954 8.05C9.954 8.79667 9.76267 9.40333 9.38 9.87C9.00667 10.3367 8.51667 10.57 7.91 10.57ZM7.91 9.94C8.32067 9.94 8.64733 9.772 8.89 9.436C9.13267 9.09067 9.254 8.62867 9.254 8.05C9.254 7.47133 9.13267 7.014 8.89 6.678C8.64733 6.33267 8.32067 6.16 7.91 6.16C7.50867 6.16 7.182 6.33267 6.93 6.678C6.68733 7.014 6.566 7.47133 6.566 8.05C6.566 8.62867 6.68733 9.09067 6.93 9.436C7.182 9.772 7.50867 9.94 7.91 9.94Z" fill="#4A577F"/>
</svg>
