<svg width="14" height="14" viewBox="0 0 14 14" fill="none" xmlns="http://www.w3.org/2000/svg">
<path d="M10.5976 8.3882C10.2058 8.30391 9.89584 8.48582 9.62138 8.6447C9.3403 8.80843 8.80583 9.242 8.49947 9.13103C6.93096 8.48522 5.45574 7.11235 4.81714 5.53754C4.70458 5.22465 5.13613 4.68678 5.29864 4.40238C5.45634 4.12707 5.6345 3.81418 5.55324 3.41941C5.47981 3.06468 4.53004 1.85613 4.19418 1.52565C3.97269 1.30735 3.74578 1.18728 3.51285 1.16788C2.63711 1.13028 1.65904 2.2988 1.48751 2.57835C1.05776 3.17443 1.06017 3.96759 1.49473 4.92933C2.54201 7.51256 6.50302 11.4111 9.09594 12.4977C9.57444 12.7215 10.012 12.8337 10.405 12.8337C10.7896 12.8337 11.1321 12.7263 11.4264 12.5135C11.6485 12.3855 12.8649 11.3589 12.833 10.4596C12.8138 10.2304 12.694 10.0012 12.4785 9.77926C12.1505 9.44029 10.9497 8.46218 10.5976 8.3882Z" fill="#3D4667"/>
</svg>
