<svg width="10" height="10" viewBox="0 0 10 10" fill="none" xmlns="http://www.w3.org/2000/svg">
<g clip-path="url(#clip0_3388_17062)">
<path d="M2.91648 4.99984C2.97751 4.9997 3.03778 4.98634 3.09315 4.96068C3.1649 4.92708 3.22559 4.87373 3.2681 4.80687C3.31061 4.74 3.33317 4.66241 3.33315 4.58318V3.33318H8.74981C8.86032 3.33318 8.9663 3.28928 9.04444 3.21114C9.12258 3.133 9.16648 3.02702 9.16648 2.91651V2.08318C9.16648 1.97267 9.12258 1.86669 9.04444 1.78855C8.9663 1.71041 8.86032 1.66651 8.74981 1.66651H3.33315V0.416511C3.33312 0.337338 3.31053 0.259813 3.26803 0.193013C3.22554 0.126212 3.16489 0.0729027 3.09319 0.0393261C3.02149 0.00574942 2.9417 -0.0067043 2.86318 0.00342321C2.78466 0.0135507 2.71065 0.0458403 2.64981 0.0965107L0.149813 2.17984C0.10292 2.21895 0.0651955 2.26788 0.0393072 2.32318C0.0134189 2.37848 0 2.43879 0 2.49984C0 2.5609 0.0134189 2.62121 0.0393072 2.67651C0.0651955 2.73181 0.10292 2.78074 0.149813 2.81984L2.64981 4.90318C2.72466 4.96559 2.81902 4.9998 2.91648 4.99984Z" fill="white"/>
<path d="M7.34967 5.09663C7.28884 5.04596 7.21483 5.01367 7.13631 5.00355C7.05778 4.99342 6.978 5.00587 6.9063 5.03945C6.8346 5.07302 6.77395 5.12633 6.73145 5.19313C6.68896 5.25993 6.66637 5.33746 6.66634 5.41663V6.66663H1.24967C1.13917 6.66663 1.03319 6.71053 0.955047 6.78867C0.876906 6.86681 0.833008 6.97279 0.833008 7.0833V7.91663C0.833008 8.02714 0.876906 8.13312 0.955047 8.21126C1.03319 8.2894 1.13917 8.3333 1.24967 8.3333H6.66634V9.5833C6.66631 9.66253 6.68888 9.74013 6.73139 9.80699C6.77389 9.87385 6.83459 9.92721 6.90634 9.9608C6.96171 9.98646 7.02198 9.99982 7.08301 9.99997C7.18047 9.99992 7.27483 9.96572 7.34967 9.9033L9.84967 7.81997C9.89657 7.78086 9.93429 7.73193 9.96018 7.67663C9.98607 7.62134 9.99949 7.56102 9.99949 7.49997C9.99949 7.43891 9.98607 7.3786 9.96018 7.3233C9.93429 7.268 9.89657 7.21907 9.84967 7.17997L7.34967 5.09663Z" fill="white"/>
</g>
<defs>
<clipPath id="clip0_3388_17062">
<rect width="10" height="10" fill="white"/>
</clipPath>
</defs>
</svg>
