<svg width="10" height="10" viewBox="0 0 10 10" fill="none" xmlns="http://www.w3.org/2000/svg">
<g clip-path="url(#clip0_3324_53313)">
<path d="M9.87454 7.82845L5.92642 0.549703C5.82905 0.369118 5.68055 0.221279 5.49954 0.124703C5.25362 -0.00690253 4.96568 -0.0360843 4.69835 0.0435052C4.43102 0.123095 4.20593 0.305017 4.07204 0.549703L0.124542 7.82845C0.0382252 7.98863 -0.00493305 8.16851 -0.000691519 8.35042C0.00355001 8.53232 0.0550454 8.70999 0.148734 8.86597C0.242423 9.02195 0.375082 9.15087 0.533676 9.24007C0.692269 9.32926 0.87134 9.37566 1.05329 9.3747H8.94579C9.12019 9.3747 9.29191 9.33177 9.44579 9.2497C9.56771 9.18499 9.6756 9.09679 9.76326 8.99017C9.85091 8.88355 9.9166 8.76064 9.95651 8.62851C9.99643 8.49639 10.0098 8.35767 9.99583 8.22035C9.98187 8.08303 9.94023 7.94984 9.87454 7.82845ZM4.99954 8.1247C4.87593 8.1247 4.75509 8.08805 4.65231 8.01937C4.54953 7.9507 4.46942 7.85308 4.42212 7.73888C4.37481 7.62468 4.36244 7.49901 4.38655 7.37777C4.41067 7.25653 4.47019 7.14517 4.5576 7.05776C4.64501 6.97035 4.75637 6.91083 4.87761 6.88671C4.99885 6.8626 5.12452 6.87497 5.23872 6.92228C5.35292 6.96958 5.45053 7.04969 5.51921 7.15247C5.58789 7.25525 5.62454 7.37609 5.62454 7.4997C5.62454 7.66546 5.55869 7.82443 5.44148 7.94164C5.32427 8.05886 5.1653 8.1247 4.99954 8.1247ZM5.62454 5.9372C5.62454 6.02008 5.59162 6.09957 5.53301 6.15817C5.47441 6.21678 5.39492 6.2497 5.31204 6.2497H4.68704C4.60416 6.2497 4.52468 6.21678 4.46607 6.15817C4.40747 6.09957 4.37454 6.02008 4.37454 5.9372V3.4372C4.37454 3.35432 4.40747 3.27484 4.46607 3.21623C4.52468 3.15763 4.60416 3.1247 4.68704 3.1247H5.31204C5.39492 3.1247 5.47441 3.15763 5.53301 3.21623C5.59162 3.27484 5.62454 3.35432 5.62454 3.4372V5.9372Z" fill="#EB3B5B"/>
</g>
<defs>
<clipPath id="clip0_3324_53313">
<rect width="10" height="10" fill="white"/>
</clipPath>
</defs>
</svg>
