<svg width="16" height="17" viewBox="0 0 16 17" fill="none" xmlns="http://www.w3.org/2000/svg">
    <path d="M8 1C6.51664 1 5.0666 1.43987 3.83323 2.26398C2.59986 3.08809 1.63856 4.25943 1.07091 5.62987C0.50325 7.00032 0.354725 8.50832 0.644114 9.96318C0.933503 11.418 1.64781 12.7544 2.6967 13.8033C3.7456 14.8522 5.08197 15.5665 6.53683 15.8559C7.99168 16.1453 9.49968 15.9968 10.8701 15.4291C12.2406 14.8614 13.4119 13.9001 14.236 12.6668C15.0601 11.4334 15.5 9.98336 15.5 8.5C15.4978 6.51157 14.7069 4.60522 13.3008 3.19918C11.8948 1.79315 9.98844 1.00225 8 1ZM2 8.5C1.99905 7.37721 2.31341 6.27673 2.90731 5.32387C3.5012 4.37101 4.35074 3.60408 5.35918 3.11042C6.36762 2.61677 7.49442 2.41623 8.61126 2.53165C9.7281 2.64707 10.7901 3.0738 11.6763 3.76325L3.26325 12.1763C2.44368 11.1262 1.999 9.83206 2 8.5ZM8 14.5C6.66837 14.5007 5.37475 14.0561 4.325 13.2367L12.7368 4.825C13.4258 5.71118 13.8523 6.77304 13.9675 7.88968C14.0827 9.00632 13.8821 10.1329 13.3885 11.1411C12.8949 12.1493 12.1281 12.9987 11.1754 13.5925C10.2228 14.1863 9.12257 14.5008 8 14.5Z" fill="#EB3B5B"/>
</svg>