<svg width="16" height="17" viewBox="0 0 16 17" fill="none" xmlns="http://www.w3.org/2000/svg">
    <path d="M13.7242 2.22389L5.33355 10.6146L2.27622 7.55723C2.02475 7.31435 1.68794 7.17996 1.33835 7.18299C0.988753 7.18603 0.654337 7.32626 0.407126 7.57347C0.159915 7.82068 0.0196899 8.15509 0.016652 8.50469C0.0136141 8.85429 0.148007 9.19109 0.390884 9.44256L4.39088 13.4426C4.64092 13.6925 4.98 13.8329 5.33355 13.8329C5.6871 13.8329 6.02618 13.6925 6.27622 13.4426L15.6096 4.10923C15.8524 3.85776 15.9868 3.52095 15.9838 3.17136C15.9807 2.82176 15.8405 2.48734 15.5933 2.24013C15.3461 1.99292 15.0117 1.8527 14.6621 1.84966C14.3125 1.84662 13.9757 1.98101 13.7242 2.22389Z" fill="#06C270"/>
</svg>