<svg width="30" height="30" viewBox="0 0 30 30" fill="none" xmlns="http://www.w3.org/2000/svg">
<g id="amex 1">
<g id="Group">
<path id="Vector" d="M27.5 4.375H2.5C1.46438 4.375 0.625 5.21438 0.625 6.25V23.75C0.625 24.7856 1.46438 25.625 2.5 25.625H27.5C28.5356 25.625 29.375 24.7856 29.375 23.75V6.25C29.375 5.21438 28.5356 4.375 27.5 4.375Z" fill="#007AC6"/>
<path id="Vector_2" d="M6.58313 15.2681H8.03937L7.31125 13.4825L6.58313 15.2681ZM26.875 11.875H23.1444L22.2344 12.8569L21.415 11.875H13.4987L12.7706 13.4819L12.0425 11.875H8.8575V12.5894L8.49375 11.875H5.76375L3.125 18.125H6.31L6.67375 17.1431H7.58375L7.9475 18.125H11.4962V17.4106L11.7694 18.125H13.5894L13.8625 17.3213V18.125H21.1425L22.0525 17.1431L22.8713 18.125H26.6019L24.2362 15L26.875 11.875ZM15.8644 17.2319H14.8631V13.75L13.3162 17.2319H12.4062L10.8594 13.75V17.2319H8.76625L8.4025 16.25H6.21875L5.855 17.2319H4.67188L6.5825 12.7675H8.12937L9.85812 16.9637V12.7675H11.5869L12.9519 15.8031L14.2256 12.7675H15.9544V17.2319H15.8644ZM24.8731 17.2319H23.5081L22.325 15.7138L20.96 17.2319H16.865V12.7675H21.0506L22.3244 14.1963L23.6894 12.7675H24.9631L22.9619 15L24.8731 17.2319ZM17.8663 13.6606V14.4644H20.1413V15.3575H17.8663V16.25H20.4144L21.5975 14.9106L20.5056 13.6606H17.8663Z" fill="white"/>
</g>
</g>
</svg>
