<svg width="30" height="30" viewBox="0 0 30 30" fill="none" xmlns="http://www.w3.org/2000/svg">
<g id="diners-club 1">
<g id="Group">
<path id="Vector" d="M27.5 4.375H2.5C1.46438 4.375 0.625 5.21438 0.625 6.25V23.75C0.625 24.7856 1.46438 25.625 2.5 25.625H27.5C28.5356 25.625 29.375 24.7856 29.375 23.75V6.25C29.375 5.21438 28.5356 4.375 27.5 4.375Z" fill="#0068AC"/>
<path id="Vector_2" d="M13.125 12.5887V17.4112C14.2006 17.1319 15 16.1612 15 15C15 13.8387 14.2006 12.8681 13.125 12.5887Z" fill="white"/>
<path id="Vector_3" d="M17.5 10H12.5C9.73875 10 7.5 12.2387 7.5 15C7.5 17.7613 9.73875 20 12.5 20H17.5C20.2613 20 22.5 17.7613 22.5 15C22.5 12.2387 20.2613 10 17.5 10ZM12.5 18.75C10.4319 18.75 8.75 17.0681 8.75 15C8.75 12.9319 10.4319 11.25 12.5 11.25C14.5681 11.25 16.25 12.9319 16.25 15C16.25 17.0681 14.5681 18.75 12.5 18.75Z" fill="white"/>
<path id="Vector_4" d="M11.875 12.5887C10.7994 12.8681 10 13.8387 10 15C10 16.1612 10.7994 17.1319 11.875 17.4112V12.5887Z" fill="white"/>
</g>
</g>
</svg>
