<svg width="30" height="30" viewBox="0 0 30 30" fill="none" xmlns="http://www.w3.org/2000/svg">
<g id="discover 1">
<g id="Group">
<path id="Vector" d="M29.375 14.8794V6.25C29.375 5.21438 28.5356 4.375 27.5 4.375H2.5C1.46438 4.375 0.625 5.21438 0.625 6.25V23.75C0.625 24.7856 1.46438 25.625 2.5 25.625H9.11812C18.8931 24.2569 26.8769 18.8087 29.375 14.8794Z" fill="#E6E6E6"/>
<path id="Vector_2" d="M29.375 23.75V14.8794C26.8769 18.8087 18.8932 24.2569 9.11816 25.625H27.5C28.5357 25.625 29.375 24.7856 29.375 23.75Z" fill="#E6E6E6"/>
<path id="Vector_3" d="M29.375 23.75V14.8794C26.8769 18.8087 18.8932 24.2569 9.11816 25.625H27.5C28.5357 25.625 29.375 24.7856 29.375 23.75Z" fill="#FA7000"/>
<path id="Vector_4" d="M15.6432 13.1331C14.587 13.1331 13.7295 13.9581 13.7295 14.9775C13.7295 16.0612 14.5495 16.87 15.6432 16.87C16.7107 16.87 17.552 16.0494 17.552 14.9981C17.5526 13.9531 16.717 13.1331 15.6432 13.1331Z" fill="#FA7000"/>
<path id="Vector_5" d="M4.77875 13.2006H3.75V16.79H4.7725C5.31688 16.79 5.70937 16.6606 6.05375 16.375C6.4625 16.0369 6.70563 15.5256 6.70563 14.9962C6.705 13.9362 5.91375 13.2006 4.77875 13.2006ZM5.5975 15.8962C5.375 16.095 5.09125 16.1819 4.63813 16.1819H4.45062V13.8081H4.63875C5.09187 13.8081 5.36437 13.8894 5.59812 14.0981C5.83875 14.3137 5.98375 14.6469 5.98375 14.9912C5.98313 15.3369 5.83875 15.6819 5.5975 15.8962Z" fill="#444444"/>
<path id="Vector_6" d="M7.72582 13.2006H7.02832V16.79H7.72582V13.2006Z" fill="#444444"/>
<path id="Vector_7" d="M9.43871 14.5763C9.01746 14.4219 8.89434 14.3188 8.89434 14.125C8.89434 13.8994 9.11434 13.7281 9.41684 13.7281C9.62621 13.7281 9.79934 13.8119 9.98309 14.0169L10.3475 13.5394C10.0468 13.2744 9.68621 13.1406 9.29371 13.1406C8.65871 13.1406 8.17434 13.5825 8.17434 14.1669C8.17434 14.6631 8.39934 14.915 9.05621 15.1538C9.33059 15.2494 9.46996 15.3144 9.54121 15.3587C9.68121 15.4494 9.75059 15.5788 9.75059 15.7288C9.75059 16.0206 9.51934 16.2356 9.20621 16.2356C8.87309 16.2356 8.60371 16.0687 8.44246 15.7556L7.99121 16.1931C8.31371 16.6656 8.70059 16.8769 9.23371 16.8769C9.96059 16.8769 10.4725 16.3906 10.4725 15.6975C10.4731 15.1262 10.2356 14.8675 9.43871 14.5763Z" fill="#444444"/>
<path id="Vector_8" d="M10.6924 14.9963C10.6924 16.0519 11.5211 16.87 12.5874 16.87C12.888 16.87 13.1461 16.8106 13.4636 16.6606V15.8356C13.183 16.1175 12.9368 16.2288 12.618 16.2288C11.913 16.2288 11.4136 15.7188 11.4136 14.9913C11.4136 14.3038 11.9293 13.7588 12.5868 13.7588C12.9186 13.7588 13.1724 13.8763 13.463 14.1625V13.3388C13.1561 13.1838 12.9043 13.1194 12.6011 13.1194C11.5418 13.1194 10.6924 13.9531 10.6924 14.9963Z" fill="#444444"/>
<path id="Vector_9" d="M19.1357 15.6106L18.1788 13.2006H17.415L18.9369 16.8806H19.3125L20.8638 13.2006H20.1063L19.1357 15.6106Z" fill="#444444"/>
<path id="Vector_10" d="M21.1812 16.79H23.1662V16.1819H21.8818V15.2131H23.1174V14.605H21.8818V13.8081H23.1662V13.2006H21.1812V16.79Z" fill="#444444"/>
<path id="Vector_11" d="M25.9373 14.2594C25.9373 13.5869 25.4761 13.2 24.6679 13.2H23.6279V16.7894H24.3298V15.3463H24.4211L25.3879 16.7894H26.2498L25.1204 15.2763C25.6479 15.1694 25.9373 14.8088 25.9373 14.2594ZM24.5336 14.8513H24.3304V13.7656H24.5448C24.9823 13.7656 25.2167 13.9494 25.2167 14.2988C25.2167 14.6575 24.9823 14.8513 24.5336 14.8513Z" fill="#444444"/>
</g>
</g>
</svg>
