<svg width="30" height="30" viewBox="0 0 30 30" fill="none" xmlns="http://www.w3.org/2000/svg">
<g id="jcb 1">
<g id="Group">
<path id="Vector" d="M27.5 4.375H2.5C1.46438 4.375 0.625 5.21438 0.625 6.25V23.75C0.625 24.7856 1.46438 25.625 2.5 25.625H27.5C28.5356 25.625 29.375 24.7856 29.375 23.75V6.25C29.375 5.21438 28.5356 4.375 27.5 4.375Z" fill="#E6E6E6"/>
<path id="Vector_2" d="M11.25 12.5H6.25V18.125H11.25V12.5Z" fill="white"/>
<path id="Vector_3" d="M17.5 12.5H12.5V18.125H17.5V12.5Z" fill="white"/>
<path id="Vector_4" d="M23.75 12.5H18.75V18.125H23.75V12.5Z" fill="white"/>
<path id="Vector_5" d="M19.7687 15.2531C20.1981 15.2531 20.5163 15.2531 20.945 15.2531C21.2806 15.2531 21.4731 15.4331 21.5281 15.6744C21.5375 15.715 21.5425 15.7575 21.5425 15.8025C21.5425 15.8475 21.5375 15.89 21.5281 15.9312C21.4725 16.1762 21.2694 16.3525 20.965 16.3525C20.54 16.3525 20.1837 16.3525 19.7687 16.3525V15.2531ZM21.3875 14.0094C21.3956 14.0463 21.4 14.0856 21.4 14.1262C21.4 14.1675 21.3956 14.2062 21.3875 14.2431C21.325 14.5275 21.0981 14.6331 20.8044 14.6331C20.4581 14.6331 20.1481 14.6331 19.7687 14.6331V13.6188C20.2969 13.6188 20.2894 13.6188 20.8244 13.6188C21.1556 13.6194 21.3369 13.7794 21.3875 14.0094ZM23.75 8.75V19.375C23.75 20.4106 22.9106 21.25 21.875 21.25H18.75V17.0031C18.7637 17.0031 21.9769 17.0031 21.9906 17.0031C22.695 16.9975 23.3063 16.6394 23.3063 15.9619C23.3063 15.9169 23.3031 15.8737 23.2975 15.8313C23.2269 15.3225 22.7463 15.005 22.1125 14.9563V14.9319C22.745 14.8338 23.0612 14.4306 23.0612 13.9756C23.0612 13.6425 22.9056 13.3719 22.6137 13.1988C22.2637 12.9919 21.8675 12.9969 21.5081 12.9969C20.9669 12.9969 19.29 12.9969 18.75 12.9969V10.625C18.75 9.58938 19.5894 8.75 20.625 8.75H23.75Z" fill="#269732"/>
<path id="Vector_6" d="M6.25 15.9788V10.625C6.25 9.58938 7.08938 8.75 8.125 8.75H11.25V19.375C11.25 20.4106 10.4125 21.25 9.3775 21.25C8.59187 21.25 7.55375 21.25 6.25 21.25V16.8594C7.01063 17.0688 8.8475 17.3019 9.92625 16.8919C10.6056 16.635 10.96 16.15 10.96 15.4144V12.9975H9.16812V15.4144C9.16812 15.9025 8.89937 16.2787 8.42062 16.4019C7.80312 16.5613 6.8975 16.2919 6.25 15.9788Z" fill="#034D9B"/>
<path id="Vector_7" d="M12.5 13.5612V10.625C12.5 9.58938 13.3394 8.75 14.375 8.75H17.5V19.375C17.5 20.4106 16.6613 21.25 15.6263 21.25C14.8538 21.25 13.8231 21.25 12.5 21.25V16.44C12.9981 16.8675 13.7006 17.0294 14.3494 17.0906C15.1862 17.1644 16.0919 17.0994 17.0594 16.86V15.9788C16.4938 16.26 15.79 16.5131 14.9919 16.4331C14.1156 16.3312 13.6787 15.7831 13.6787 15.0006C13.6787 14.1775 14.1631 13.6506 15.0119 13.565C15.6925 13.4975 16.4194 13.7006 17.0594 14.0219V13.14C16.1631 12.9188 15.385 12.86 14.6506 12.89C13.9031 12.9263 13.0663 13.075 12.5 13.5612Z" fill="#AD1031"/>
</g>
</g>
</svg>
