<svg xmlns="http://www.w3.org/2000/svg" width="50" height="17" viewBox="0 0 50 17" fill="none">
    <path d="M18.9833 0.287501L12.4375 15.9042H8.16667L4.94583 3.43958C4.75 2.67292 4.58125 2.39167 3.98542 2.06875C3.01458 1.54167 1.41042 1.04792 0 0.739584L0.0958333 0.287501H6.97083C7.4201 0.28705 7.85473 0.447219 8.19627 0.739093C8.53781 1.03097 8.76376 1.43532 8.83333 1.87917L10.5354 10.9167L14.7396 0.287501H18.9833ZM35.7188 10.8062C35.7354 6.68333 30.0187 6.45625 30.0583 4.61458C30.0708 4.05417 30.6042 3.45833 31.7708 3.30625C33.1381 3.1764 34.5151 3.41825 35.7562 4.00625L36.4646 0.69375C35.2562 0.239469 33.9764 0.00453462 32.6854 0C28.6917 0 25.8813 2.125 25.8562 5.16458C25.8312 7.4125 27.8625 8.66458 29.3937 9.41458C30.9688 10.1792 31.4979 10.6708 31.4896 11.3542C31.4792 12.4042 30.2354 12.8646 29.0729 12.8833C27.0417 12.9146 25.8646 12.3354 24.9229 11.8979L24.1917 15.3187C25.1354 15.7521 26.8771 16.1312 28.6833 16.1479C32.9271 16.1479 35.7042 14.0521 35.7188 10.8062ZM46.2625 15.9042H50L46.7396 0.287501H43.2896C42.921 0.284085 42.5598 0.391498 42.253 0.59581C41.9461 0.800122 41.7078 1.09191 41.5687 1.43333L35.5083 15.9042H39.75L40.5938 13.5708H45.7771L46.2625 15.9042ZM41.7562 10.3708L43.8812 4.50625L45.1062 10.3708H41.7562ZM24.7563 0.287501L21.4167 15.9042H17.375L20.7187 0.287501H24.7563Z" fill="#2966E0"/>
</svg>