<svg width="22" height="11" viewBox="0 0 22 11" fill="none" xmlns="http://www.w3.org/2000/svg">
<path d="M12.5148 3.2879C14.6214 2.85877 17.5473 2.85877 20.6291 4.80933C20.9022 5.00439 21.0583 5.35549 20.9802 5.66758C20.8242 6.25275 20.5121 7.22803 19.8879 8.28133C19.3028 9.2176 18.2495 9.80277 17.1571 9.76376C15.7527 9.72474 13.6071 9.52969 11.1884 8.78848C10.4862 8.55441 9.94007 8.00825 9.74501 7.30605C9.706 7.18902 9.706 7.15001 9.66699 6.99396" stroke="white" stroke-width="0.75" stroke-miterlimit="10" stroke-linecap="round" stroke-linejoin="round"/>
<path fill-rule="evenodd" clip-rule="evenodd" d="M15.9758 4.42906C16.0997 4.59504 16.0656 4.83001 15.8996 4.95388L13.2858 6.90444C13.1198 7.02831 12.8849 6.99417 12.761 6.82819C12.6371 6.6622 12.6713 6.42723 12.8373 6.30337L15.451 4.35281C15.617 4.22894 15.852 4.26308 15.9758 4.42906Z" fill="white"/>
<path fill-rule="evenodd" clip-rule="evenodd" d="M16.13 6.68987C16.255 6.85507 16.2223 7.09025 16.0571 7.21516L14.4576 8.42451C14.2924 8.54941 14.0573 8.51675 13.9323 8.35155C13.8074 8.18635 13.8401 7.95117 14.0053 7.82626L15.6048 6.61691C15.77 6.49201 16.0051 6.52467 16.13 6.68987Z" fill="white"/>
<path fill-rule="evenodd" clip-rule="evenodd" d="M17.692 4.3901C17.8159 4.55612 17.7816 4.79108 17.6156 4.91489L13.0123 8.34788C12.8463 8.47169 12.6113 8.43747 12.4875 8.27145C12.3637 8.10543 12.3979 7.87047 12.5639 7.74666L17.1672 4.31367C17.3333 4.18986 17.5682 4.22407 17.692 4.3901Z" fill="white"/>
<path fill-rule="evenodd" clip-rule="evenodd" d="M8.36143 2.57825C8.43028 2.69793 8.38909 2.85076 8.26941 2.91962L5.42159 4.55809C5.30191 4.62694 5.14908 4.58574 5.08022 4.46607C5.01137 4.34639 5.05257 4.19355 5.17224 4.1247L8.02006 2.48623C8.13974 2.41737 8.29257 2.45857 8.36143 2.57825Z" fill="white"/>
<path fill-rule="evenodd" clip-rule="evenodd" d="M8.2456 4.88167C8.31354 5.00187 8.27117 5.15438 8.15097 5.22232L6.35646 6.23662C6.23626 6.30455 6.08374 6.26219 6.0158 6.14199C5.94786 6.02179 5.99023 5.86927 6.11043 5.80133L7.90494 4.78704C8.02514 4.7191 8.17766 4.76147 8.2456 4.88167Z" fill="white"/>
<path fill-rule="evenodd" clip-rule="evenodd" d="M10.0397 2.77414C10.1081 2.89408 10.0664 3.04676 9.94643 3.11516L4.953 5.96297C4.83306 6.03138 4.68038 5.9896 4.61198 5.86966C4.54358 5.74972 4.58536 5.59705 4.70529 5.52864L9.69873 2.68083C9.81866 2.61243 9.97134 2.6542 10.0397 2.77414Z" fill="white"/>
<path d="M11.7733 1.68855C10.2518 1.14239 5.72653 -0.0669571 1.31827 3.09295C1.04519 3.28801 0.928156 3.63911 1.04519 3.99021C1.24025 4.57538 1.63036 5.55066 2.29355 6.52594C2.91773 7.42319 4.01004 7.93034 5.14137 7.85232C6.54577 7.73528 8.69139 7.42319 11.0321 6.52594C11.7343 6.25286 12.2414 5.66769 12.3975 4.96549C12.5535 4.34131 12.6315 3.48306 12.4755 2.50778C12.3975 2.11767 12.1244 1.80558 11.7733 1.68855Z" stroke="white" stroke-width="0.75" stroke-miterlimit="10" stroke-linecap="round" stroke-linejoin="round"/>
</svg>
