<svg width="16" height="16" viewBox="0 0 16 16" fill="none" xmlns="http://www.w3.org/2000/svg">
<path fill-rule="evenodd" clip-rule="evenodd" d="M5.95017 10.9266H9.54093C9.81156 10.9266 10.036 10.6999 10.036 10.4266C10.036 10.1533 9.81156 9.93325 9.54093 9.93325H5.95017C5.67954 9.93325 5.45512 10.1533 5.45512 10.4266C5.45512 10.6999 5.67954 10.9266 5.95017 10.9266ZM8.18119 6.59992H5.95017C5.67954 6.59992 5.45512 6.82658 5.45512 7.09992C5.45512 7.37325 5.67954 7.59325 5.95017 7.59325H8.18119C8.45182 7.59325 8.67624 7.37325 8.67624 7.09992C8.67624 6.82658 8.45182 6.59992 8.18119 6.59992ZM12.8917 6.01699C13.0469 6.0152 13.2158 6.01325 13.3693 6.01325C13.5343 6.01325 13.6663 6.14659 13.6663 6.31325V11.6733C13.6663 13.3266 12.3396 14.6666 10.7026 14.6666H5.44852C3.73235 14.6666 2.33301 13.2599 2.33301 11.5266V4.33992C2.33301 2.68659 3.66634 1.33325 5.30991 1.33325H8.83466C9.00628 1.33325 9.13829 1.47325 9.13829 1.63992V3.78659C9.13829 5.00659 10.135 6.00659 11.3429 6.01325C11.6251 6.01325 11.8738 6.01536 12.0915 6.01721C12.2608 6.01864 12.4114 6.01992 12.5442 6.01992C12.6382 6.01992 12.76 6.01851 12.8917 6.01699ZM13.0737 5.04392C12.5312 5.04592 11.8916 5.04392 11.4315 5.03925C10.7015 5.03925 10.1001 4.43192 10.1001 3.69459V1.93725C10.1001 1.64992 10.4454 1.50725 10.6427 1.71459C11.0003 2.09009 11.4918 2.60639 11.9809 3.1202C12.4678 3.63171 12.9524 4.14074 13.3001 4.50592C13.4929 4.70792 13.3516 5.04325 13.0737 5.04392Z" fill="white"/>
</svg>
