<svg width="14" height="14" viewBox="0 0 14 14" fill="none" xmlns="http://www.w3.org/2000/svg">
    <g clip-path="url(#clip0_1811_15216)">
        <path d="M14 2.625C14 2.39294 13.9078 2.17038 13.7437 2.00628C13.5796 1.84219 13.3571 1.75 13.125 1.75H9.625V0.875C9.625 0.642936 9.53281 0.420376 9.36872 0.256282C9.20462 0.0921872 8.98206 0 8.75 0L5.25 0C5.01794 0 4.79538 0.0921872 4.63128 0.256282C4.46719 0.420376 4.375 0.642936 4.375 0.875V1.75H0.875C0.642936 1.75 0.420376 1.84219 0.256282 2.00628C0.0921872 2.17038 0 2.39294 0 2.625C0 2.85706 0.0921872 3.07962 0.256282 3.24372C0.420376 3.40781 0.642936 3.5 0.875 3.5H13.125C13.3571 3.5 13.5796 3.40781 13.7437 3.24372C13.9078 3.07962 14 2.85706 14 2.625Z" fill="#363E59"/>
        <path d="M1.75 4.375V12.25C1.75 12.7141 1.93437 13.1592 2.26256 13.4874C2.59075 13.8156 3.03587 14 3.5 14H10.5C10.9641 14 11.4092 13.8156 11.7374 13.4874C12.0656 13.1592 12.25 12.7141 12.25 12.25V4.375H1.75ZM9.6775 11.2473L9.05975 11.865C9.01911 11.9057 8.97083 11.9381 8.91768 11.9601C8.86453 11.9822 8.80755 11.9935 8.75 11.9935C8.69245 11.9935 8.63547 11.9822 8.58232 11.9601C8.52917 11.9381 8.48089 11.9057 8.44025 11.865L7 10.4247L5.55975 11.865C5.51911 11.9057 5.47083 11.9381 5.41768 11.9601C5.36453 11.9822 5.30755 11.9935 5.25 11.9935C5.19245 11.9935 5.13547 11.9822 5.08232 11.9601C5.02917 11.9381 4.98089 11.9057 4.94025 11.865L4.3225 11.2473C4.28176 11.2066 4.24943 11.1583 4.22738 11.1052C4.20532 11.052 4.19397 10.995 4.19397 10.9375C4.19397 10.88 4.20532 10.823 4.22738 10.7698C4.24943 10.7167 4.28176 10.6684 4.3225 10.6277L5.76275 9.1875L4.3225 7.74725C4.28176 7.70661 4.24943 7.65833 4.22738 7.60518C4.20532 7.55203 4.19397 7.49505 4.19397 7.4375C4.19397 7.37995 4.20532 7.32297 4.22738 7.26982C4.24943 7.21667 4.28176 7.16839 4.3225 7.12775L4.94025 6.51C4.98089 6.46926 5.02917 6.43693 5.08232 6.41488C5.13547 6.39282 5.19245 6.38147 5.25 6.38147C5.30755 6.38147 5.36453 6.39282 5.41768 6.41488C5.47083 6.43693 5.51911 6.46926 5.55975 6.51L7 7.95025L8.44025 6.51C8.48089 6.46926 8.52917 6.43693 8.58232 6.41488C8.63547 6.39282 8.69245 6.38147 8.75 6.38147C8.80755 6.38147 8.86453 6.39282 8.91768 6.41488C8.97083 6.43693 9.01911 6.46926 9.05975 6.51L9.6775 7.12775C9.71824 7.16839 9.75057 7.21667 9.77262 7.26982C9.79468 7.32297 9.80603 7.37995 9.80603 7.4375C9.80603 7.49505 9.79468 7.55203 9.77262 7.60518C9.75057 7.65833 9.71824 7.70661 9.6775 7.74725L8.23725 9.1875L9.6775 10.6277C9.71824 10.6684 9.75057 10.7167 9.77262 10.7698C9.79468 10.823 9.80603 10.88 9.80603 10.9375C9.80603 10.995 9.79468 11.052 9.77262 11.1052C9.75057 11.1583 9.71824 11.2066 9.6775 11.2473Z" fill="#363E59"/>
    </g>
    <defs>
        <clipPath id="clip0_1811_15216">
            <rect width="14" height="14" fill="white"/>
        </clipPath>
    </defs>
</svg>